<?xml version="1.0" encoding="UTF-8"?>
<svg width="135px" height="81px" viewBox="0 0 135 81" version="1.1" xmlns="http://www.w3.org/2000/svg" xmlns:xlink="http://www.w3.org/1999/xlink">
    <!-- Generator: Sketch 50.2 (55047) - http://www.bohemiancoding.com/sketch -->
    <title>Group 6</title>
    <desc>Created with Sketch.</desc>
    <defs></defs>
    <g id="HD" stroke="none" stroke-width="1" fill="none" fill-rule="evenodd">
        <g id="Home--Copy" transform="translate(-102.000000, -31.000000)">
            <g id="Group-6" transform="translate(101.000000, 31.000000)">
                <rect id="underline-copy" fill="#9EF7FF" x="1" y="0" width="135" height="4" rx="2"></rect>
                <path d="M11.73,16.57 C13.0700067,16.57 14.2599948,16.8349973 15.3,17.365 C16.3400052,17.8950027 17.154997,18.6349952 17.745,19.585 C18.335003,20.5350048 18.63,21.609994 18.63,22.81 C18.63,23.7900049 18.3650027,24.6699961 17.835,25.45 C17.3049974,26.2300039 16.5800046,26.8599976 15.66,27.34 C17.0200068,27.6600016 18.0899961,28.2999952 18.87,29.26 C19.6500039,30.2200048 20.04,31.4399926 20.04,32.92 C20.04,34.2800068 19.7150033,35.4999946 19.065,36.58 C18.4149968,37.6600054 17.5050058,38.499997 16.335,39.1 C15.1649942,39.700003 13.8400074,40 12.36,40 L4.56,40 C4.1199978,40 3.7500015,39.8500015 3.45,39.55 C3.1499985,39.2499985 3,38.8800022 3,38.44 L3,18.13 C3,17.6699977 3.1499985,17.2950014 3.45,17.005 C3.7500015,16.7149985 4.1199978,16.57 4.56,16.57 L11.73,16.57 Z M11.73,26.2 C12.9100059,26.2 13.8549964,25.9100029 14.565,25.33 C15.2750035,24.7499971 15.63,23.9100055 15.63,22.81 C15.63,21.7099945 15.2750035,20.8750028 14.565,20.305 C13.8549964,19.7349971 12.9100059,19.45 11.73,19.45 L6.12,19.45 L6.12,26.2 L11.73,26.2 Z M12.36,37.12 C13.760007,37.12 14.8899957,36.7550037 15.75,36.025 C16.6100043,35.2949964 17.04,34.2600067 17.04,32.92 C17.04,31.6799938 16.6150042,30.7300033 15.765,30.07 C14.9149958,29.4099967 13.7800071,29.08 12.36,29.08 L6.12,29.08 L6.12,37.12 L12.36,37.12 Z M32.43,23.41 C33.4900053,23.41 34.319997,23.5699984 34.92,23.89 C35.520003,24.2100016 35.82,24.6099976 35.82,25.09 C35.82,25.2300007 35.8100001,25.3299997 35.79,25.39 C35.6099991,26.0300032 35.2100031,26.35 34.59,26.35 C34.4899995,26.35 34.340001,26.3300002 34.14,26.29 C33.339996,26.1499993 32.6900025,26.08 32.19,26.08 C30.7499928,26.08 29.5900044,26.4099967 28.71,27.07 C27.8299956,27.7300033 27.39,28.6199944 27.39,29.74 L27.39,38.5 C27.39,38.9800024 27.2650012,39.3499987 27.015,39.61 C26.7649987,39.8700013 26.3900025,40 25.89,40 C25.4099976,40 25.0400013,39.8750012 24.78,39.625 C24.5199987,39.3749987 24.39,39.0000025 24.39,38.5 L24.39,25.09 C24.39,24.6099976 24.5199987,24.2400013 24.78,23.98 C25.0400013,23.7199987 25.4099976,23.59 25.89,23.59 C26.890005,23.59 27.39,24.089995 27.39,25.09 L27.39,25.66 C27.990003,24.9599965 28.7299956,24.410002 29.61,24.01 C30.4900044,23.609998 31.429995,23.41 32.43,23.41 Z M46.41,23.47 C47.9500077,23.47 49.3449937,23.8349963 50.595,24.565 C51.8450062,25.2950036 52.8349963,26.2949936 53.565,27.565 C54.2950036,28.8350063 54.66,30.2499922 54.66,31.81 L54.66,38.5 C54.66,38.9400022 54.5150014,39.3049985 54.225,39.595 C53.9349985,39.8850015 53.5700022,40.03 53.13,40.03 C52.6899978,40.03 52.3250014,39.8850015 52.035,39.595 C51.7449985,39.3049985 51.6,38.9400022 51.6,38.5 L51.6,37.39 C50.8999965,38.2500043 50.050005,38.9199976 49.05,39.4 C48.049995,39.8800024 46.9700058,40.12 45.81,40.12 C44.3699928,40.12 43.0650058,39.7600036 41.895,39.04 C40.7249941,38.3199964 39.8050033,37.3250063 39.135,36.055 C38.4649966,34.7849937 38.13,33.3700078 38.13,31.81 C38.13,30.2499922 38.4899964,28.8350063 39.21,27.565 C39.9300036,26.2949936 40.9249936,25.2950036 42.195,24.565 C43.4650063,23.8349963 44.8699923,23.47 46.41,23.47 Z M46.41,37.42 C47.410005,37.42 48.3149959,37.1750024 49.125,36.685 C49.935004,36.1949975 50.5699977,35.5250042 51.03,34.675 C51.4900023,33.8249957 51.72,32.8700053 51.72,31.81 C51.72,30.7499947 51.4900023,29.7900043 51.03,28.93 C50.5699977,28.0699957 49.935004,27.3950024 49.125,26.905 C48.3149959,26.4149975 47.410005,26.17 46.41,26.17 C45.409995,26.17 44.505004,26.4149975 43.695,26.905 C42.8849959,27.3950024 42.2450023,28.0699957 41.775,28.93 C41.3049976,29.7900043 41.07,30.7499947 41.07,31.81 C41.07,32.8700053 41.3049976,33.8249957 41.775,34.675 C42.2450023,35.5250042 42.8849959,36.1949975 43.695,36.685 C44.505004,37.1750024 45.409995,37.42 46.41,37.42 Z M60.75,16.57 C61.1900022,16.57 61.5549985,16.7099986 61.845,16.99 C62.1350014,17.2700014 62.28,17.6399977 62.28,18.1 L62.28,26.2 C62.9800035,25.3399957 63.829995,24.6700024 64.83,24.19 C65.830005,23.7099976 66.9099942,23.47 68.07,23.47 C69.5100072,23.47 70.8149941,23.8299964 71.985,24.55 C73.1550058,25.2700036 74.0749967,26.2649937 74.745,27.535 C75.4150034,28.8050063 75.75,30.2199922 75.75,31.78 C75.75,33.3400078 75.3900036,34.7549936 74.67,36.025 C73.9499964,37.2950063 72.9550064,38.2949963 71.685,39.025 C70.4149936,39.7550036 69.0100077,40.12 67.47,40.12 C65.9299923,40.12 64.5350062,39.7550036 63.285,39.025 C62.0349937,38.2949963 61.0450036,37.2950063 60.315,36.025 C59.5849963,34.7549936 59.22,33.3400078 59.22,31.78 L59.22,18.1 C59.22,17.6399977 59.3599986,17.2700014 59.64,16.99 C59.9200014,16.7099986 60.2899977,16.57 60.75,16.57 Z M67.47,37.42 C68.470005,37.42 69.3749959,37.1750024 70.185,36.685 C70.995004,36.1949975 71.6349976,35.5200043 72.105,34.66 C72.5750024,33.7999957 72.81,32.8400053 72.81,31.78 C72.81,30.7199947 72.5750024,29.7650042 72.105,28.915 C71.6349976,28.0649957 70.995004,27.3950024 70.185,26.905 C69.3749959,26.4149975 68.470005,26.17 67.47,26.17 C66.469995,26.17 65.565004,26.4149975 64.755,26.905 C63.9449959,27.3950024 63.3100023,28.0649957 62.85,28.915 C62.3899977,29.7650042 62.16,30.7199947 62.16,31.78 C62.16,32.8400053 62.3899977,33.7999957 62.85,34.66 C63.3100023,35.5200043 63.9449959,36.1949975 64.755,36.685 C65.565004,37.1750024 66.469995,37.42 67.47,37.42 Z M87.75,23.47 C89.2900077,23.47 90.6849938,23.8349963 91.935,24.565 C93.1850063,25.2950036 94.1749964,26.2949936 94.905,27.565 C95.6350037,28.8350063 96,30.2499922 96,31.81 L96,38.5 C96,38.9400022 95.8550015,39.3049985 95.565,39.595 C95.2749985,39.8850015 94.9100022,40.03 94.47,40.03 C94.0299978,40.03 93.6650015,39.8850015 93.375,39.595 C93.0849985,39.3049985 92.94,38.9400022 92.94,38.5 L92.94,37.39 C92.2399965,38.2500043 91.390005,38.9199976 90.39,39.4 C89.389995,39.8800024 88.3100058,40.12 87.15,40.12 C85.7099928,40.12 84.4050058,39.7600036 83.235,39.04 C82.0649942,38.3199964 81.1450033,37.3250063 80.475,36.055 C79.8049966,34.7849937 79.47,33.3700078 79.47,31.81 C79.47,30.2499922 79.8299964,28.8350063 80.55,27.565 C81.2700036,26.2949936 82.2649936,25.2950036 83.535,24.565 C84.8050063,23.8349963 86.2099923,23.47 87.75,23.47 Z M87.75,37.42 C88.750005,37.42 89.6549959,37.1750024 90.465,36.685 C91.2750041,36.1949975 91.9099977,35.5250042 92.37,34.675 C92.8300023,33.8249957 93.06,32.8700053 93.06,31.81 C93.06,30.7499947 92.8300023,29.7900043 92.37,28.93 C91.9099977,28.0699957 91.2750041,27.3950024 90.465,26.905 C89.6549959,26.4149975 88.750005,26.17 87.75,26.17 C86.749995,26.17 85.8450041,26.4149975 85.035,26.905 C84.2249959,27.3950024 83.5850023,28.0699957 83.115,28.93 C82.6449976,29.7900043 82.41,30.7499947 82.41,31.81 C82.41,32.8700053 82.6449976,33.8249957 83.115,34.675 C83.5850023,35.5250042 84.2249959,36.1949975 85.035,36.685 C85.8450041,37.1750024 86.749995,37.42 87.75,37.42 Z M108.72,23.44 C110.100007,23.44 111.339995,23.739997 112.44,24.34 C113.540006,24.940003 114.399997,25.8149942 115.02,26.965 C115.640003,28.1150057 115.95,29.4999919 115.95,31.12 L115.95,38.5 C115.95,38.9400022 115.805001,39.3049985 115.515,39.595 C115.224999,39.8850015 114.860002,40.03 114.42,40.03 C113.979998,40.03 113.615001,39.8850015 113.325,39.595 C113.034999,39.3049985 112.89,38.9400022 112.89,38.5 L112.89,31.12 C112.89,29.4999919 112.455004,28.2750041 111.585,27.445 C110.714996,26.6149958 109.560007,26.2 108.12,26.2 C107.279996,26.2 106.515003,26.3699983 105.825,26.71 C105.134997,27.0500017 104.595002,27.5099971 104.205,28.09 C103.814998,28.6700029 103.62,29.3199964 103.62,30.04 L103.62,38.5 C103.62,38.9400022 103.480001,39.3049985 103.2,39.595 C102.919999,39.8850015 102.550002,40.03 102.09,40.03 C101.649998,40.03 101.285001,39.8850015 100.995,39.595 C100.704999,39.3049985 100.56,38.9400022 100.56,38.5 L100.56,25.12 C100.56,24.6599977 100.704999,24.2900014 100.995,24.01 C101.285001,23.7299986 101.649998,23.59 102.09,23.59 C102.550002,23.59 102.919999,23.7299986 103.2,24.01 C103.480001,24.2900014 103.62,24.6599977 103.62,25.12 L103.62,25.45 C104.260003,24.8099968 105.019996,24.3150018 105.9,23.965 C106.780004,23.6149982 107.719995,23.44 108.72,23.44 Z M128.01,37 C128.370002,37 128.674999,37.1399986 128.925,37.42 C129.175001,37.7000014 129.3,38.0599978 129.3,38.5 C129.3,38.9400022 129.135002,39.2999986 128.805,39.58 C128.474998,39.8600014 128.050003,40 127.53,40 L126.99,40 C126.009995,40 125.115004,39.7450026 124.305,39.235 C123.494996,38.7249974 122.860002,38.0300044 122.4,37.15 C121.939998,36.2699956 121.71,35.2800055 121.71,34.18 L121.71,26.77 L120.33,26.77 C119.909998,26.77 119.570001,26.6500012 119.31,26.41 C119.049999,26.1699988 118.92,25.8700018 118.92,25.51 C118.92,25.109998 119.049999,24.7900012 119.31,24.55 C119.570001,24.3099988 119.909998,24.19 120.33,24.19 L121.71,24.19 L121.71,19.87 C121.71,19.4299978 121.849999,19.0700014 122.13,18.79 C122.410001,18.5099986 122.769998,18.37 123.21,18.37 C123.650002,18.37 124.009999,18.5099986 124.29,18.79 C124.570001,19.0700014 124.71,19.4299978 124.71,19.87 L124.71,24.19 L127.26,24.19 C127.680002,24.19 128.019999,24.3099988 128.28,24.55 C128.540001,24.7900012 128.67,25.109998 128.67,25.51 C128.67,25.8700018 128.540001,26.1699988 128.28,26.41 C128.019999,26.6500012 127.680002,26.77 127.26,26.77 L124.71,26.77 L124.71,34.18 C124.71,34.980004 124.929998,35.6499973 125.37,36.19 C125.810002,36.7300027 126.349997,37 126.99,37 L128.01,37 Z M13.5,56.27 C15.0200076,56.27 16.3349944,56.469998 17.445,56.87 C18.5550055,57.270002 19.6799943,57.9299954 20.82,58.85 C21.0600012,59.0300009 21.2199996,59.2149991 21.3,59.405 C21.3800004,59.5950009 21.42,59.8199987 21.42,60.08 C21.42,60.480002 21.2750014,60.8099987 20.985,61.07 C20.6949986,61.3300013 20.3600019,61.46 19.98,61.46 C19.5999981,61.46 19.2500016,61.3300013 18.93,61.07 C18.1099959,60.3699965 17.3100039,59.8650016 16.53,59.555 C15.7499961,59.2449984 14.7400062,59.09 13.5,59.09 C11.9399922,59.09 10.5050066,59.4999959 9.195,60.32 C7.88499345,61.1400041 6.84500385,62.254993 6.075,63.665 C5.30499615,65.075007 4.92,66.6099917 4.92,68.27 C4.92,69.9500084 5.30499615,71.489993 6.075,72.89 C6.84500385,74.290007 7.88499345,75.3999959 9.195,76.22 C10.5050066,77.0400041 11.9399922,77.45 13.5,77.45 C15.4200096,77.45 17.2599912,76.7900066 19.02,75.47 C19.3600017,75.2299988 19.6899984,75.11 20.01,75.11 C20.3900019,75.11 20.7049988,75.2449986 20.955,75.515 C21.2050013,75.7850014 21.33,76.1399978 21.33,76.58 C21.33,77.0000021 21.1700016,77.3699984 20.85,77.69 C18.6899892,79.4300087 16.2400137,80.3 13.5,80.3 C11.3599893,80.3 9.40500885,79.7700053 7.635,78.71 C5.86499115,77.6499947 4.4700051,76.2000092 3.45,74.36 C2.4299949,72.5199908 1.92,70.4900111 1.92,68.27 C1.92,66.069989 2.4299949,64.0550092 3.45,62.225 C4.4700051,60.3949908 5.86499115,58.9450054 7.635,57.875 C9.40500885,56.8049946 11.3599893,56.27 13.5,56.27 Z M25.41,58.07 C25.41,57.6299978 25.5499986,57.2700014 25.83,56.99 C26.1100014,56.7099986 26.4699978,56.57 26.91,56.57 C27.3500022,56.57 27.7099986,56.7099986 27.99,56.99 C28.2700014,57.2700014 28.41,57.6299978 28.41,58.07 L28.41,74.45 C28.41,75.1900037 28.5499986,75.7999976 28.83,76.28 C29.1100014,76.7600024 29.4699978,77 29.91,77 L30.66,77 C31.060002,77 31.3849987,77.1399986 31.635,77.42 C31.8850012,77.7000014 32.01,78.0599978 32.01,78.5 C32.01,78.9400022 31.8200019,79.2999986 31.44,79.58 C31.0599981,79.8600014 30.570003,80 29.97,80 L29.91,80 C29.0499957,80 28.2750034,79.7650024 27.585,79.295 C26.8949965,78.8249977 26.3600019,78.1650042 25.98,77.315 C25.5999981,76.4649957 25.41,75.5100053 25.41,74.45 L25.41,58.07 Z M42.45,63.47 C44.0300079,63.47 45.4449938,63.8249965 46.695,64.535 C47.9450062,65.2450036 48.9249964,66.2299937 49.635,67.49 C50.3450036,68.7500063 50.7,70.1899919 50.7,71.81 C50.7,73.410008 50.3500035,74.8399937 49.65,76.1 C48.9499965,77.3600063 47.9750063,78.3449965 46.725,79.055 C45.4749938,79.7650036 44.050008,80.12 42.45,80.12 C40.849992,80.12 39.4200063,79.7650036 38.16,79.055 C36.8999937,78.3449965 35.9200035,77.3600063 35.22,76.1 C34.5199965,74.8399937 34.17,73.410008 34.17,71.81 C34.17,70.1899919 34.5199965,68.7500063 35.22,67.49 C35.9200035,66.2299937 36.8999937,65.2450036 38.16,64.535 C39.4200063,63.8249965 40.849992,63.47 42.45,63.47 Z M42.45,66.17 C41.4299949,66.17 40.5150041,66.4099976 39.705,66.89 C38.894996,67.3700024 38.2600023,68.0399957 37.8,68.9 C37.3399977,69.7600043 37.11,70.7299946 37.11,71.81 C37.11,72.8900054 37.3399977,73.8549958 37.8,74.705 C38.2600023,75.5550042 38.894996,76.2199976 39.705,76.7 C40.5150041,77.1800024 41.4299949,77.42 42.45,77.42 C43.4700051,77.42 44.384996,77.1800024 45.195,76.7 C46.0050041,76.2199976 46.6349978,75.5550042 47.085,74.705 C47.5350023,73.8549958 47.76,72.8900054 47.76,71.81 C47.76,70.7299946 47.5350023,69.7600043 47.085,68.9 C46.6349978,68.0399957 46.0050041,67.3700024 45.195,66.89 C44.384996,66.4099976 43.4700051,66.17 42.45,66.17 Z M68.79,63.56 C69.2500023,63.56 69.6199986,63.6999986 69.9,63.98 C70.1800014,64.2600014 70.32,64.6299977 70.32,65.09 L70.32,78.47 C70.32,78.9100022 70.1800014,79.2749985 69.9,79.565 C69.6199986,79.8550015 69.2500023,80 68.79,80 C68.3499978,80 67.9850015,79.8550015 67.695,79.565 C67.4049986,79.2749985 67.26,78.9100022 67.26,78.47 L67.26,78.14 C66.6199968,78.7800032 65.8600044,79.2749982 64.98,79.625 C64.0999956,79.9750018 63.160005,80.15 62.16,80.15 C60.7799931,80.15 59.5400055,79.850003 58.44,79.25 C57.3399945,78.649997 56.4800031,77.7750058 55.86,76.625 C55.2399969,75.4749943 54.93,74.0900081 54.93,72.47 L54.93,65.09 C54.93,64.6499978 55.0749986,64.2850014 55.365,63.995 C55.6550015,63.7049985 56.0199978,63.56 56.46,63.56 C56.9000022,63.56 57.2649986,63.7049985 57.555,63.995 C57.8450015,64.2850014 57.99,64.6499978 57.99,65.09 L57.99,72.47 C57.99,74.0900081 58.4249957,75.3149959 59.295,76.145 C60.1650044,76.9750042 61.3199928,77.39 62.76,77.39 C63.6000042,77.39 64.3649966,77.2200017 65.055,76.88 C65.7450035,76.5399983 66.2849981,76.0800029 66.675,75.5 C67.065002,74.9199971 67.26,74.2700036 67.26,73.55 L67.26,65.09 C67.26,64.6299977 67.4049986,64.2600014 67.695,63.98 C67.9850015,63.6999986 68.3499978,63.56 68.79,63.56 Z M89.88,56.57 C90.3400023,56.57 90.7099986,56.7099986 90.99,56.99 C91.2700014,57.2700014 91.41,57.6399977 91.41,58.1 L91.41,71.78 C91.41,73.3400078 91.0450037,74.7549936 90.315,76.025 C89.5849964,77.2950063 88.5950063,78.2949963 87.345,79.025 C86.0949938,79.7550036 84.7000077,80.12 83.16,80.12 C81.6199923,80.12 80.2150064,79.7550036 78.945,79.025 C77.6749937,78.2949963 76.6800036,77.2950063 75.96,76.025 C75.2399964,74.7549936 74.88,73.3400078 74.88,71.78 C74.88,70.2199922 75.2149967,68.8050063 75.885,67.535 C76.5550034,66.2649937 77.4749942,65.2700036 78.645,64.55 C79.8150059,63.8299964 81.1199928,63.47 82.56,63.47 C83.7200058,63.47 84.799995,63.7099976 85.8,64.19 C86.800005,64.6700024 87.6499965,65.3399957 88.35,66.2 L88.35,58.1 C88.35,57.6399977 88.4949986,57.2700014 88.785,56.99 C89.0750015,56.7099986 89.4399978,56.57 89.88,56.57 Z M83.16,77.42 C84.160005,77.42 85.064996,77.1750024 85.875,76.685 C86.6850041,76.1949975 87.3199977,75.5200043 87.78,74.66 C88.2400023,73.7999957 88.47,72.8400053 88.47,71.78 C88.47,70.7199947 88.2400023,69.7650043 87.78,68.915 C87.3199977,68.0649958 86.6850041,67.3950024 85.875,66.905 C85.064996,66.4149976 84.160005,66.17 83.16,66.17 C82.159995,66.17 81.2550041,66.4149976 80.445,66.905 C79.634996,67.3950024 78.9950024,68.0649958 78.525,68.915 C78.0549977,69.7650043 77.82,70.7199947 77.82,71.78 C77.82,72.8400053 78.0549977,73.7999957 78.525,74.66 C78.9950024,75.5200043 79.634996,76.1949975 80.445,76.685 C81.2550041,77.1750024 82.159995,77.42 83.16,77.42 Z" id="Brabant-Cloud" fill="#FFFFFF"></path>
            </g>
        </g>
    </g>
</svg>